# xmcd CD database file
#
# Track frame offsets:
#	150
#	13041
#	33526
#	45101
#	60875
#	77316
#	92123
#	110557
#	122907
#	135610
#	148627
#	160094
#	169359
#	187593
#	196715
#	211465
#	224342
#	239511
#	250816
#	263405
#	277479
#	291692
#	304502
#	317336
#
# Disc length: 4382 seconds
#
# Revision: 0
# Processed by: cddbd v1.5.2PL0 Copyright (c) Steve Scherf et al.
# Submitted via: CDex 1.70beta2
#
DISCID=51111c18
DTITLE=Merle Haggard - From The King To The Barrooms
DYEAR=2008
DGENRE=Country
TTITLE0=Misery And Gin
TTITLE1=I Think I'll Just Stay Here And Drink
TTITLE2=Back To The Barrooms Again
TTITLE3=I Don't Want To Sober Up Tonight
TTITLE4=Leonard
TTITLE5=When My Blue Moon Turns To GoldAgain
TTITLE6=Make Up And Faded Blue Jeans
TTITLE7=Love Me Tender
TTITLE8=Are You Lonesom Tonight?
TTITLE9=My Own Kind Of Hat
TTITLE10=Red Bandana
TTITLE11=Blue Suede Shoes
TTITLE12=Footlights
TTITLE13=Don't Be Cruel
TTITLE14=If Were Not Back In Love By Monday
TTITLE15=Take Me Back And Try Me One More Time
TTITLE16=I'll Always Be Glad To Take You Back
TTITLE17=Thats All Right 
TTITLE18=Its Been A Great Afternoon
TTITLE19=Ramblin Fever
TTITLE20=It Makes No Difference Now
TTITLE21=Im Always On A Mountain When I Fall
TTITLE22=Rainbow Stew
TTITLE23=From Graceland To The Promised Land
EXTD=YEAR: 2008
EXTT0=
EXTT1=
EXTT2=
EXTT3=
EXTT4=
EXTT5=
EXTT6=
EXTT7=
EXTT8=
EXTT9=
EXTT10=
EXTT11=
EXTT12=
EXTT13=
EXTT14=
EXTT15=
EXTT16=
EXTT17=
EXTT18=
EXTT19=
EXTT20=
EXTT21=
EXTT22=
EXTT23=
PLAYORDER=
